<svg width="24" height="24" viewBox="0 0 24 24" fill="none" xmlns="http://www.w3.org/2000/svg">
<mask id="mask0_524_955" style="mask-type:alpha" maskUnits="userSpaceOnUse" x="0" y="0" width="24" height="24">
<path d="M24 0H0V24H24V0Z" fill="#D9D9D9"/>
</mask>
<g mask="url(#mask0_524_955)">
<path d="M12 21C11.6357 21 11.3304 20.8768 11.0839 20.6304C10.8375 20.3839 10.7143 20.0786 10.7143 19.7143V13.2857H4.28571C3.92143 13.2857 3.61607 13.1625 3.36964 12.9161C3.12321 12.6696 3 12.3643 3 12C3 11.6357 3.12321 11.3304 3.36964 11.0839C3.61607 10.8375 3.92143 10.7143 4.28571 10.7143H10.7143V4.28571C10.7143 3.92143 10.8375 3.61607 11.0839 3.36964C11.3304 3.12321 11.6357 3 12 3C12.3643 3 12.6696 3.12321 12.9161 3.36964C13.1625 3.61607 13.2857 3.92143 13.2857 4.28571V10.7143H19.7143C20.0786 10.7143 20.3839 10.8375 20.6304 11.0839C20.8768 11.3304 21 11.6357 21 12C21 12.3643 20.8768 12.6696 20.6304 12.9161C20.3839 13.1625 20.0786 13.2857 19.7143 13.2857H13.2857V19.7143C13.2857 20.0786 13.1625 20.3839 12.9161 20.6304C12.6696 20.8768 12.3643 21 12 21Z" fill="#1B1B3C"/>
</g>
</svg>
