<svg width="12" height="7" viewBox="0 0 12 7" fill="none" xmlns="http://www.w3.org/2000/svg">
<path d="M6.0002 6.9498C5.8668 6.9498 5.7418 6.9289 5.6252 6.8873C5.5085 6.8456 5.4002 6.7748 5.3002 6.6748L0.675152 2.0498C0.491822 1.86643 0.404322 1.63726 0.412652 1.36226C0.420992 1.08726 0.516822 0.858101 0.700152 0.674761C0.883492 0.491431 1.11682 0.399762 1.40015 0.399762C1.68349 0.399762 1.91682 0.491431 2.10015 0.674761L6.0002 4.5748L9.9252 0.649762C10.1085 0.466432 10.3377 0.378932 10.6127 0.387262C10.8877 0.395602 11.1168 0.491431 11.3002 0.674761C11.4835 0.858101 11.5752 1.09143 11.5752 1.37476C11.5752 1.6581 11.4835 1.89143 11.3002 2.0748L6.7002 6.6748C6.6002 6.7748 6.4918 6.8456 6.3752 6.8873C6.2585 6.9289 6.1335 6.9498 6.0002 6.9498Z" fill="#1B1B3C"/>
</svg>
