<svg width="25" height="24" viewBox="0 0 25 24" fill="none" xmlns="http://www.w3.org/2000/svg">
<mask id="mask0_529_967" style="mask-type:alpha" maskUnits="userSpaceOnUse" x="0" y="0" width="25" height="24">
<path d="M24.5 0H0.5V24H24.5V0Z" fill="#5F5BE2"/>
</mask>
<g mask="url(#mask0_529_967)">
<path d="M12.5 20.9963C12.5 21.5506 12.0496 22.0056 11.4978 21.9527C10.4844 21.8555 9.51844 21.6088 8.6 21.2125C7.38333 20.6875 6.325 19.975 5.425 19.075C4.525 18.175 3.8125 17.1167 3.2875 15.9C2.7625 14.6833 2.5 13.3833 2.5 12C2.5 10.6167 2.7625 9.31667 3.2875 8.1C3.8125 6.88333 4.525 5.825 5.425 4.925C6.325 4.025 7.38333 3.3125 8.6 2.7875C9.81667 2.2625 11.1167 2 12.5 2C14.9333 2 17.0625 2.7625 18.8875 4.2875C20.3817 5.53609 21.4151 7.04444 21.9876 8.81256C22.1875 9.43007 21.6964 10.025 21.0473 10.025C20.5777 10.025 20.1741 9.7051 20.0127 9.26414C19.6783 8.35032 19.1865 7.51644 18.5375 6.7625C17.7981 5.90359 16.9081 5.23546 15.8674 4.7581C15.6935 4.67831 15.5 4.80863 15.5 5C15.5 5.55 15.3042 6.02083 14.9125 6.4125C14.5208 6.80417 14.05 7 13.5 7C12.3954 7 11.5 7.89543 11.5 9C11.5 9.28333 11.4042 9.52083 11.2125 9.7125C11.0208 9.90417 10.7833 10 10.5 10H9.5C8.94772 10 8.5 10.4477 8.5 11C8.5 11.5523 8.94772 12 9.5 12C10.0523 12 10.5 12.4477 10.5 13V14.2929C10.5 14.6834 10.1834 15 9.79289 15C9.60536 15 9.4255 14.9255 9.29289 14.7929L5.3438 10.8438C5.07432 10.5743 4.61493 10.7225 4.5625 11.1C4.52083 11.4 4.5 11.7 4.5 12C4.5 14.1833 5.26667 16.0583 6.8 17.625C8.10358 18.9569 9.67218 19.7287 11.5058 19.9403C12.0536 20.0035 12.5 20.4449 12.5 20.9963ZM20.9 20.8L18.4 18.3C18.05 18.5 17.675 18.6667 17.275 18.8C16.875 18.9333 16.45 19 16 19C14.75 19 13.6875 18.5625 12.8125 17.6875C11.9375 16.8125 11.5 15.75 11.5 14.5C11.5 13.25 11.9375 12.1875 12.8125 11.3125C13.6875 10.4375 14.75 10 16 10C17.25 10 18.3125 10.4375 19.1875 11.3125C20.0625 12.1875 20.5 13.25 20.5 14.5C20.5 14.95 20.4333 15.375 20.3 15.775C20.1667 16.175 20 16.55 19.8 16.9L22.3 19.4C22.4833 19.5833 22.575 19.8167 22.575 20.1C22.575 20.3833 22.4833 20.6167 22.3 20.8C22.1167 20.9833 21.8833 21.075 21.6 21.075C21.3167 21.075 21.0833 20.9833 20.9 20.8ZM16 17C16.7 17 17.2917 16.7583 17.775 16.275C18.2583 15.7917 18.5 15.2 18.5 14.5C18.5 13.8 18.2583 13.2083 17.775 12.725C17.2917 12.2417 16.7 12 16 12C15.3 12 14.7083 12.2417 14.225 12.725C13.7417 13.2083 13.5 13.8 13.5 14.5C13.5 15.2 13.7417 15.7917 14.225 16.275C14.7083 16.7583 15.3 17 16 17Z" fill="#5F5BE2"/>
</g>
</svg>
