<svg width="12" height="7" viewBox="0 0 12 7" fill="none" xmlns="http://www.w3.org/2000/svg">
<path d="M5.98621 0.386169C6.11951 0.386169 6.24451 0.406999 6.36121 0.448669C6.47781 0.490329 6.58621 0.56116 6.68621 0.66116L11.3112 5.28619C11.4945 5.46949 11.582 5.69869 11.5737 5.97369C11.5653 6.24869 11.4695 6.47779 11.2862 6.66119C11.1028 6.84449 10.8695 6.93619 10.5862 6.93619C10.3028 6.93619 10.0695 6.84449 9.88621 6.66119L5.98621 2.76119L2.06119 6.68619C1.87785 6.86949 1.64868 6.95699 1.37369 6.94869C1.09869 6.94029 0.869524 6.84449 0.686194 6.66119C0.502854 6.47779 0.411194 6.24449 0.411194 5.96119C0.411194 5.67779 0.502854 5.44449 0.686194 5.26119L5.28621 0.66116C5.38621 0.56116 5.49451 0.490329 5.61121 0.448669C5.72781 0.406999 5.85281 0.386169 5.98621 0.386169Z" fill="#1B1B3C"/>
</svg>
